<svg width="600" height="580" viewBox="0 0 600 580" fill="none" xmlns="http://www.w3.org/2000/svg">
<rect width="600" height="580" rx="20" fill="#FAFAFA"/>
<path d="M40.952 38.948V49H42.744V45.108H44.97C47.21 45.108 48.61 44.03 48.61 42.028C48.61 39.998 47.21 38.948 44.97 38.948H40.952ZM44.872 43.568H42.744V40.488H44.872C46.16 40.488 46.846 41.034 46.846 42.028C46.846 43.008 46.16 43.568 44.872 43.568ZM53.763 43.316V41.636C53.637 41.622 53.483 41.608 53.287 41.608C52.349 41.608 51.593 42.056 51.271 42.742V41.65H49.591V49H51.271V45.136C51.271 43.96 52.083 43.274 53.147 43.274C53.385 43.274 53.553 43.288 53.763 43.316ZM56.631 40.67V38.948H54.895V40.67H56.631ZM54.923 41.65V49H56.603V41.65H54.923ZM59.2783 41.65H57.5143L60.2023 49H61.8963L64.5843 41.65H62.8483L61.0703 46.984L59.2783 41.65ZM67.1639 49.126C68.1159 49.126 68.8859 48.818 69.3479 48.3C69.5999 48.902 70.2439 49.14 71.4619 49V47.698C70.9999 47.754 70.8179 47.628 70.8179 47.208V44.044C70.8179 42.35 69.7539 41.51 67.9899 41.51C66.3659 41.51 65.2879 42.462 64.9239 43.68L66.5059 44.044C66.7019 43.33 67.1219 42.966 67.9199 42.966C68.8159 42.966 69.1799 43.4 69.1799 44.1V44.226L67.1499 44.646C65.7359 44.94 64.6859 45.556 64.6859 46.956C64.6859 48.272 65.7639 49.126 67.1639 49.126ZM67.5979 45.85L69.1799 45.514V46.41C69.1799 47.306 68.3119 47.782 67.4159 47.782C66.7719 47.782 66.3519 47.46 66.3519 46.886C66.3519 46.228 66.8839 46.004 67.5979 45.85ZM71.7874 41.65V43.078H72.8094V47.152C72.8094 48.65 73.5654 49.084 74.9654 49.084C75.3994 49.084 75.8194 49.042 76.1274 48.986V47.572C75.8754 47.6 75.7214 47.614 75.4414 47.614C74.8394 47.614 74.4614 47.544 74.4614 46.886V43.078H76.0014V41.65H74.4614V39.494H72.8094V41.65H71.7874ZM80.4255 49.154C81.8955 49.154 83.0575 48.384 83.5755 47.096L82.1335 46.55C81.9095 47.306 81.2515 47.726 80.4255 47.726C79.3475 47.726 78.5915 46.956 78.4655 45.696H83.6175V45.136C83.6175 43.12 82.4835 41.51 80.3555 41.51C78.3115 41.51 76.8555 43.176 76.8555 45.332C76.8555 47.6 78.3255 49.154 80.4255 49.154ZM80.3415 42.924C81.4055 42.924 81.9095 43.624 81.9235 44.436H78.5495C78.8015 43.442 79.4735 42.924 80.3415 42.924ZM89.5969 40.516H94.6369V38.948H87.8329V49H94.6369V47.432H89.5969V44.604H93.8389V43.036H89.5969V40.516ZM98.6423 49.154C99.5943 49.154 100.294 48.776 100.756 48.23V51.52H102.436V41.65H100.756V42.434C100.294 41.888 99.5943 41.51 98.6423 41.51C96.5843 41.51 95.4083 43.246 95.4083 45.332C95.4083 47.418 96.5843 49.154 98.6423 49.154ZM100.798 45.122V45.556C100.798 46.914 100.014 47.684 98.9783 47.684C97.7603 47.684 97.1023 46.732 97.1023 45.332C97.1023 43.932 97.7603 42.98 98.9783 42.98C100.014 42.98 100.798 43.736 100.798 45.122ZM108.634 48.216V49H110.314V41.65H108.634V46.018C108.634 47.068 107.878 47.628 107.122 47.628C106.212 47.628 105.82 47.054 105.82 46.158V41.65H104.14V46.522C104.14 48.104 105.092 49.154 106.632 49.154C107.584 49.154 108.214 48.706 108.634 48.216ZM113.793 40.67V38.948H112.057V40.67H113.793ZM112.085 41.65V49H113.765V41.65H112.085ZM114.662 41.65V43.078H115.684V47.152C115.684 48.65 116.44 49.084 117.84 49.084C118.274 49.084 118.694 49.042 119.002 48.986V47.572C118.75 47.6 118.596 47.614 118.316 47.614C117.714 47.614 117.336 47.544 117.336 46.886V43.078H118.876V41.65H117.336V39.494H115.684V41.65H114.662ZM123.453 49.686L126.477 41.65H124.741L122.977 46.802L121.171 41.65H119.407L122.081 48.734L121.801 49.42C121.563 50.008 121.297 50.162 120.737 50.162C120.527 50.162 120.401 50.148 120.177 50.12V51.534C120.415 51.562 120.513 51.576 120.863 51.576C122.389 51.576 123.033 50.806 123.453 49.686ZM130.339 38.948V49H132.131V38.948H130.339ZM135.64 42.434V41.65H133.96V49H135.64V44.688C135.64 43.638 136.41 43.078 137.166 43.078C138.09 43.078 138.454 43.736 138.454 44.646V49H140.134V44.156C140.134 42.574 139.21 41.51 137.67 41.51C136.718 41.51 136.06 41.944 135.64 42.434ZM144.621 49.154C145.573 49.154 146.273 48.776 146.735 48.23V49H148.415V38.948H146.735V42.434C146.273 41.888 145.573 41.51 144.621 41.51C142.563 41.51 141.387 43.246 141.387 45.332C141.387 47.418 142.563 49.154 144.621 49.154ZM146.777 45.122V45.556C146.777 46.914 145.993 47.684 144.957 47.684C143.739 47.684 143.081 46.732 143.081 45.332C143.081 43.932 143.739 42.98 144.957 42.98C145.993 42.98 146.777 43.736 146.777 45.122ZM153.283 49.154C154.753 49.154 155.915 48.384 156.433 47.096L154.991 46.55C154.767 47.306 154.109 47.726 153.283 47.726C152.205 47.726 151.449 46.956 151.323 45.696H156.475V45.136C156.475 43.12 155.341 41.51 153.213 41.51C151.169 41.51 149.713 43.176 149.713 45.332C149.713 47.6 151.183 49.154 153.283 49.154ZM153.199 42.924C154.263 42.924 154.767 43.624 154.781 44.436H151.407C151.659 43.442 152.331 42.924 153.199 42.924ZM156.498 49H158.318L160.04 46.452L161.776 49H163.666L161.062 45.192L163.47 41.65H161.636L160.096 43.946L158.584 41.65H156.68L159.088 45.192L156.498 49ZM168.339 41.65H166.575L169.263 49H170.957L173.645 41.65H171.909L170.131 46.984L168.339 41.65ZM174.905 46.592L173.645 47.6C174.303 48.608 175.661 49.154 177.019 49.154C178.685 49.154 180.043 48.202 180.043 46.718C180.043 45.038 178.475 44.772 177.229 44.506C176.305 44.31 175.773 44.212 175.773 43.68C175.773 43.19 176.221 42.882 176.907 42.882C177.719 42.882 178.419 43.26 178.839 43.918L179.973 42.896C179.441 42.084 178.293 41.51 177.005 41.51C175.311 41.51 174.135 42.49 174.135 43.834C174.135 45.402 175.465 45.696 176.627 45.934C177.789 46.172 178.405 46.242 178.405 46.872C178.405 47.53 177.747 47.782 177.033 47.782C176.179 47.782 175.339 47.306 174.905 46.592ZM182.904 49V46.97H180.874V49H182.904ZM187.646 45.906L186.274 47.04C187.058 48.328 188.766 49.154 190.488 49.154C192.56 49.154 194.296 47.936 194.296 45.962C194.296 43.778 192.35 43.4 190.726 43.036C189.368 42.728 188.598 42.546 188.598 41.664C188.598 40.866 189.34 40.32 190.418 40.32C191.594 40.32 192.336 40.922 192.896 41.79L194.212 40.656C193.54 39.606 192.196 38.794 190.474 38.794C188.444 38.794 186.848 39.984 186.848 41.846C186.848 43.806 188.472 44.254 189.984 44.618C191.482 44.982 192.532 45.122 192.532 46.144C192.532 47.11 191.678 47.628 190.544 47.628C189.396 47.628 188.346 46.998 187.646 45.906ZM204.089 43.848L202.423 43.568C202.325 44.408 202.101 45.192 201.737 45.85L199.693 43.834C201.247 43.092 201.989 42.434 201.989 41.216C201.989 39.886 200.897 38.794 199.147 38.794C197.397 38.794 196.151 39.942 196.151 41.44C196.151 42.322 196.599 42.98 197.173 43.61C195.913 44.282 195.171 45.08 195.171 46.368C195.171 48.09 196.669 49.154 198.657 49.154C199.875 49.154 200.911 48.762 201.751 48.132L202.633 49H204.929L202.885 46.984C203.543 46.074 203.963 44.968 204.089 43.848ZM197.887 41.342C197.887 40.6 198.433 40.096 199.161 40.096C199.917 40.096 200.365 40.67 200.365 41.258C200.365 42.042 199.945 42.364 198.741 42.882C198.237 42.35 197.887 41.93 197.887 41.342ZM196.991 46.172C196.991 45.402 197.439 44.954 198.125 44.576L200.687 47.082C200.169 47.46 199.539 47.684 198.811 47.684C197.803 47.684 196.991 47.124 196.991 46.172ZM205.643 38.948V49H207.435V45.108H209.661C211.901 45.108 213.301 44.03 213.301 42.028C213.301 39.998 211.901 38.948 209.661 38.948H205.643ZM209.563 43.568H207.435V40.488H209.563C210.851 40.488 211.537 41.034 211.537 42.028C211.537 43.008 210.851 43.568 209.563 43.568ZM223.436 38.948H217.78L217.332 44.268L218.956 44.492C219.25 44.086 219.796 43.75 220.524 43.75C221.644 43.75 222.358 44.632 222.358 45.738C222.358 46.844 221.518 47.67 220.426 47.67C219.348 47.67 218.592 46.956 218.424 45.822L216.702 46.13C217.024 48.076 218.452 49.154 220.426 49.154C222.498 49.154 224.038 47.656 224.038 45.682C224.038 43.764 222.764 42.294 220.762 42.294C219.964 42.294 219.334 42.602 218.928 42.98L219.152 40.516H223.436V38.948ZM224.869 43.974C224.869 47.04 226.325 49.154 228.817 49.154C231.309 49.154 232.765 47.04 232.765 43.974C232.765 40.908 231.309 38.794 228.817 38.794C226.325 38.794 224.869 40.908 224.869 43.974ZM226.661 43.974C226.661 41.86 227.333 40.348 228.817 40.348C230.301 40.348 230.973 41.86 230.973 43.974C230.973 46.088 230.301 47.6 228.817 47.6C227.333 47.6 226.661 46.088 226.661 43.974ZM233.714 43.974C233.714 47.04 235.17 49.154 237.662 49.154C240.154 49.154 241.61 47.04 241.61 43.974C241.61 40.908 240.154 38.794 237.662 38.794C235.17 38.794 233.714 40.908 233.714 43.974ZM235.506 43.974C235.506 41.86 236.178 40.348 237.662 40.348C239.146 40.348 239.818 41.86 239.818 43.974C239.818 46.088 239.146 47.6 237.662 47.6C236.178 47.6 235.506 46.088 235.506 43.974ZM245.921 38.948V49H247.713V38.948H245.921ZM251.222 42.434V41.65H249.542V49H251.222V44.688C251.222 43.638 251.992 43.078 252.748 43.078C253.672 43.078 254.036 43.736 254.036 44.646V49H255.716V44.156C255.716 42.574 254.792 41.51 253.252 41.51C252.3 41.51 251.642 41.944 251.222 42.434ZM260.203 49.154C261.155 49.154 261.855 48.776 262.317 48.23V49H263.997V38.948H262.317V42.434C261.855 41.888 261.155 41.51 260.203 41.51C258.145 41.51 256.969 43.246 256.969 45.332C256.969 47.418 258.145 49.154 260.203 49.154ZM262.359 45.122V45.556C262.359 46.914 261.575 47.684 260.539 47.684C259.321 47.684 258.663 46.732 258.663 45.332C258.663 43.932 259.321 42.98 260.539 42.98C261.575 42.98 262.359 43.736 262.359 45.122ZM268.865 49.154C270.335 49.154 271.497 48.384 272.015 47.096L270.573 46.55C270.349 47.306 269.691 47.726 268.865 47.726C267.787 47.726 267.031 46.956 266.905 45.696H272.057V45.136C272.057 43.12 270.923 41.51 268.795 41.51C266.751 41.51 265.295 43.176 265.295 45.332C265.295 47.6 266.765 49.154 268.865 49.154ZM268.781 42.924C269.845 42.924 270.349 43.624 270.363 44.436H266.989C267.241 43.442 267.913 42.924 268.781 42.924ZM272.08 49H273.9L275.622 46.452L277.358 49H279.248L276.644 45.192L279.052 41.65H277.218L275.678 43.946L274.166 41.65H272.262L274.67 45.192L272.08 49ZM286.609 45.668V44.17H282.689V45.668H286.609ZM297.619 49H299.411V38.948H297.619V43.036H292.803V38.948H291.011V49H292.803V44.604H297.619V49ZM302.957 40.67V38.948H301.221V40.67H302.957ZM301.249 41.65V49H302.929V41.65H301.249ZM305.185 46.592L303.925 47.6C304.583 48.608 305.941 49.154 307.299 49.154C308.965 49.154 310.323 48.202 310.323 46.718C310.323 45.038 308.755 44.772 307.508 44.506C306.585 44.31 306.053 44.212 306.053 43.68C306.053 43.19 306.501 42.882 307.187 42.882C307.999 42.882 308.699 43.26 309.119 43.918L310.253 42.896C309.721 42.084 308.573 41.51 307.285 41.51C305.591 41.51 304.415 42.49 304.415 43.834C304.415 45.402 305.745 45.696 306.907 45.934C308.069 46.172 308.685 46.242 308.685 46.872C308.685 47.53 308.027 47.782 307.312 47.782C306.459 47.782 305.619 47.306 305.185 46.592ZM310.744 41.65V43.078H311.766V47.152C311.766 48.65 312.522 49.084 313.922 49.084C314.356 49.084 314.776 49.042 315.084 48.986V47.572C314.832 47.6 314.678 47.614 314.398 47.614C313.796 47.614 313.418 47.544 313.418 46.886V43.078H314.958V41.65H313.418V39.494H311.766V41.65H310.744ZM322.897 45.332C322.897 43.05 321.427 41.51 319.355 41.51C317.283 41.51 315.813 43.05 315.813 45.332C315.813 47.614 317.283 49.154 319.355 49.154C321.427 49.154 322.897 47.614 322.897 45.332ZM317.507 45.332C317.507 43.834 318.221 42.924 319.355 42.924C320.489 42.924 321.203 43.834 321.203 45.332C321.203 46.83 320.489 47.74 319.355 47.74C318.221 47.74 317.507 46.83 317.507 45.332ZM328.376 43.316V41.636C328.25 41.622 328.096 41.608 327.9 41.608C326.962 41.608 326.206 42.056 325.884 42.742V41.65H324.204V49H325.884V45.136C325.884 43.96 326.696 43.274 327.76 43.274C327.998 43.274 328.166 43.288 328.376 43.316ZM331.244 40.67V38.948H329.508V40.67H331.244ZM329.536 41.65V49H331.216V41.65H329.536ZM334.2 45.332C334.2 43.834 334.984 42.952 336.132 42.952C337.028 42.952 337.574 43.554 337.784 44.352L339.198 43.582C338.806 42.406 337.714 41.51 336.132 41.51C334.032 41.51 332.52 43.064 332.52 45.332C332.52 47.6 334.032 49.154 336.132 49.154C337.728 49.154 338.848 48.216 339.226 47.026L337.784 46.298C337.574 47.11 337.028 47.698 336.132 47.698C334.984 47.698 334.2 46.83 334.2 45.332ZM342.324 49.126C343.276 49.126 344.046 48.818 344.508 48.3C344.76 48.902 345.404 49.14 346.622 49V47.698C346.16 47.754 345.978 47.628 345.978 47.208V44.044C345.978 42.35 344.914 41.51 343.15 41.51C341.526 41.51 340.448 42.462 340.084 43.68L341.666 44.044C341.862 43.33 342.282 42.966 343.08 42.966C343.976 42.966 344.34 43.4 344.34 44.1V44.226L342.31 44.646C340.896 44.94 339.846 45.556 339.846 46.956C339.846 48.272 340.924 49.126 342.324 49.126ZM342.758 45.85L344.34 45.514V46.41C344.34 47.306 343.472 47.782 342.576 47.782C341.932 47.782 341.512 47.46 341.512 46.886C341.512 46.228 342.044 46.004 342.758 45.85ZM347.816 38.948V49H349.496V38.948H347.816ZM354.216 38.948V49H356.008V45.108H358.234C360.474 45.108 361.874 44.03 361.874 42.028C361.874 39.998 360.474 38.948 358.234 38.948H354.216ZM358.136 43.568H356.008V40.488H358.136C359.424 40.488 360.11 41.034 360.11 42.028C360.11 43.008 359.424 43.568 358.136 43.568ZM365.744 49.154C367.214 49.154 368.376 48.384 368.894 47.096L367.452 46.55C367.228 47.306 366.57 47.726 365.744 47.726C364.666 47.726 363.91 46.956 363.784 45.696H368.936V45.136C368.936 43.12 367.802 41.51 365.674 41.51C363.63 41.51 362.174 43.176 362.174 45.332C362.174 47.6 363.644 49.154 365.744 49.154ZM365.66 42.924C366.724 42.924 367.228 43.624 367.242 44.436H363.868C364.12 43.442 364.792 42.924 365.66 42.924ZM374.368 43.316V41.636C374.242 41.622 374.088 41.608 373.892 41.608C372.954 41.608 372.198 42.056 371.876 42.742V41.65H370.196V49H371.876V45.136C371.876 43.96 372.688 43.274 373.752 43.274C373.99 43.274 374.158 43.288 374.368 43.316ZM379.067 40.278V38.808C378.759 38.794 378.633 38.794 378.367 38.794C376.715 38.794 375.861 39.648 375.861 41.174V41.65H374.839V43.078H375.861V49H377.541V43.078H379.039V41.65H377.541V41.3C377.541 40.46 377.905 40.264 378.563 40.264C378.773 40.264 378.871 40.264 379.067 40.278ZM386.553 45.332C386.553 43.05 385.083 41.51 383.011 41.51C380.939 41.51 379.469 43.05 379.469 45.332C379.469 47.614 380.939 49.154 383.011 49.154C385.083 49.154 386.553 47.614 386.553 45.332ZM381.163 45.332C381.163 43.834 381.877 42.924 383.011 42.924C384.145 42.924 384.859 43.834 384.859 45.332C384.859 46.83 384.145 47.74 383.011 47.74C381.877 47.74 381.163 46.83 381.163 45.332ZM392.033 43.316V41.636C391.907 41.622 391.753 41.608 391.557 41.608C390.619 41.608 389.863 42.056 389.541 42.742V41.65H387.861V49H389.541V45.136C389.541 43.96 390.353 43.274 391.417 43.274C391.655 43.274 391.823 43.288 392.033 43.316ZM393.193 41.65V49H394.873V44.688C394.873 43.638 395.615 43.078 396.329 43.078C397.225 43.078 397.561 43.736 397.561 44.646V49H399.241V44.688C399.241 43.638 399.983 43.078 400.697 43.078C401.593 43.078 401.929 43.736 401.929 44.646V49H403.609V44.156C403.609 42.574 402.629 41.51 401.117 41.51C399.983 41.51 399.283 42.056 398.835 42.532C398.429 41.902 397.771 41.51 396.889 41.51C395.909 41.51 395.279 41.944 394.873 42.434V41.65H393.193ZM407.266 49.126C408.218 49.126 408.988 48.818 409.45 48.3C409.702 48.902 410.346 49.14 411.564 49V47.698C411.102 47.754 410.92 47.628 410.92 47.208V44.044C410.92 42.35 409.856 41.51 408.092 41.51C406.468 41.51 405.39 42.462 405.026 43.68L406.608 44.044C406.804 43.33 407.224 42.966 408.022 42.966C408.918 42.966 409.282 43.4 409.282 44.1V44.226L407.252 44.646C405.838 44.94 404.788 45.556 404.788 46.956C404.788 48.272 405.866 49.126 407.266 49.126ZM407.7 45.85L409.282 45.514V46.41C409.282 47.306 408.414 47.782 407.518 47.782C406.874 47.782 406.454 47.46 406.454 46.886C406.454 46.228 406.986 46.004 407.7 45.85ZM414.437 42.434V41.65H412.757V49H414.437V44.688C414.437 43.638 415.207 43.078 415.963 43.078C416.887 43.078 417.251 43.736 417.251 44.646V49H418.931V44.156C418.931 42.574 418.007 41.51 416.467 41.51C415.515 41.51 414.857 41.944 414.437 42.434ZM421.864 45.332C421.864 43.834 422.648 42.952 423.796 42.952C424.692 42.952 425.238 43.554 425.448 44.352L426.862 43.582C426.47 42.406 425.378 41.51 423.796 41.51C421.696 41.51 420.184 43.064 420.184 45.332C420.184 47.6 421.696 49.154 423.796 49.154C425.392 49.154 426.512 48.216 426.89 47.026L425.448 46.298C425.238 47.11 424.692 47.698 423.796 47.698C422.648 47.698 421.864 46.83 421.864 45.332ZM431.013 49.154C432.483 49.154 433.645 48.384 434.163 47.096L432.721 46.55C432.497 47.306 431.839 47.726 431.013 47.726C429.935 47.726 429.179 46.956 429.053 45.696H434.205V45.136C434.205 43.12 433.071 41.51 430.943 41.51C428.899 41.51 427.443 43.176 427.443 45.332C427.443 47.6 428.913 49.154 431.013 49.154ZM430.929 42.924C431.993 42.924 432.497 43.624 432.511 44.436H429.137C429.389 43.442 430.061 42.924 430.929 42.924Z" fill="#232323"/>
<path d="M175.651 525.948V536H176.995V531.786H179.487C181.615 531.786 182.973 530.75 182.973 528.86C182.973 526.942 181.615 525.948 179.487 525.948H175.651ZM179.417 530.624H176.995V527.11H179.417C180.845 527.11 181.643 527.726 181.643 528.86C181.643 529.994 180.845 530.624 179.417 530.624ZM187.961 529.924V528.65C187.835 528.636 187.653 528.622 187.457 528.622C186.463 528.622 185.749 529.182 185.427 529.924V528.678H184.167V536H185.427V531.996C185.427 530.708 186.281 529.868 187.345 529.868C187.583 529.868 187.751 529.882 187.961 529.924ZM190.665 527.404V525.948H189.293V527.404H190.665ZM189.349 528.678V536H190.609V528.678H189.349ZM193.174 528.678H191.844L194.588 536H195.834L198.578 528.678H197.262L195.232 534.46L193.174 528.678ZM201.437 536.126C202.431 536.126 203.243 535.748 203.691 535.174C203.845 535.874 204.489 536.14 205.609 536V534.992C205.119 535.104 204.825 534.95 204.825 534.474V530.904C204.825 529.336 203.817 528.538 202.179 528.538C200.681 528.538 199.603 529.392 199.253 530.582L200.443 530.89C200.667 530.078 201.213 529.644 202.137 529.644C203.117 529.644 203.579 530.12 203.579 530.96V531.268L201.801 531.632C200.163 531.968 199.029 532.57 199.029 534.026C199.029 535.342 200.107 536.126 201.437 536.126ZM202.151 532.556L203.579 532.248V533.508C203.579 534.446 202.669 535.104 201.591 535.104C200.793 535.104 200.275 534.684 200.275 533.97C200.275 533.088 201.031 532.78 202.151 532.556ZM206.034 528.678V529.756H207.168V534.25C207.168 535.65 207.882 536.07 209.128 536.07C209.548 536.07 209.912 536.028 210.234 535.958V534.88C209.94 534.95 209.73 534.964 209.436 534.964C208.792 534.964 208.414 534.824 208.414 534.054V529.756H210.08V528.678H208.414V526.536H207.168V528.678H206.034ZM214.615 536.154C216.071 536.154 217.177 535.356 217.625 534.054L216.519 533.662C216.295 534.53 215.595 535.062 214.615 535.062C213.341 535.062 212.459 534.082 212.389 532.542H217.681V532.122C217.681 530.092 216.603 528.538 214.559 528.538C212.571 528.538 211.185 530.162 211.185 532.346C211.185 534.6 212.585 536.154 214.615 536.154ZM214.545 529.616C215.819 529.616 216.379 530.54 216.407 531.576H212.459C212.683 530.33 213.481 529.616 214.545 529.616ZM223.588 527.124H228.824V525.948H222.258V536H228.824V534.824H223.588V531.394H228.026V530.218H223.588V527.124ZM232.943 536.154C233.965 536.154 234.777 535.664 235.211 534.936V538.52H236.471V528.678H235.211V529.742C234.777 529.028 233.965 528.538 232.943 528.538C230.913 528.538 229.751 530.26 229.751 532.346C229.751 534.418 230.913 536.154 232.943 536.154ZM235.239 532.094V532.612C235.239 534.292 234.203 535.048 233.167 535.048C231.795 535.048 231.025 533.914 231.025 532.346C231.025 530.764 231.795 529.644 233.167 529.644C234.203 529.644 235.239 530.386 235.239 532.094ZM243.118 534.992V536H244.378V528.678H243.118V533.088C243.118 534.306 242.194 534.992 241.284 534.992C240.206 534.992 239.758 534.292 239.758 533.256V528.678H238.498V533.522C238.498 535.076 239.38 536.154 240.948 536.154C241.984 536.154 242.698 535.608 243.118 534.992ZM247.786 527.404V525.948H246.414V527.404H247.786ZM246.47 528.678V536H247.73V528.678H246.47ZM248.895 528.678V529.756H250.029V534.25C250.029 535.65 250.743 536.07 251.989 536.07C252.409 536.07 252.773 536.028 253.095 535.958V534.88C252.801 534.95 252.591 534.964 252.297 534.964C251.653 534.964 251.275 534.824 251.275 534.054V529.756H252.941V528.678H251.275V526.536H250.029V528.678H248.895ZM257.28 536.798L260.43 528.678H259.114L257.084 534.278L255.026 528.678H253.696L256.412 535.734L256.062 536.602C255.768 537.33 255.474 537.526 254.928 537.526C254.718 537.526 254.564 537.512 254.326 537.456V538.548C254.55 538.59 254.704 538.604 255.012 538.604C256.286 538.604 256.86 537.904 257.28 536.798ZM264.669 525.948V536H266.013V525.948H264.669ZM269.427 529.672V528.678H268.167V536H269.427V531.632C269.427 530.414 270.351 529.714 271.261 529.714C272.353 529.714 272.787 530.484 272.787 531.506V536H274.047V531.17C274.047 529.616 273.165 528.538 271.611 528.538C270.575 528.538 269.847 529.07 269.427 529.672ZM278.758 536.154C279.78 536.154 280.592 535.664 281.026 534.936V536H282.286V525.948H281.026V529.742C280.592 529.028 279.78 528.538 278.758 528.538C276.728 528.538 275.566 530.26 275.566 532.346C275.566 534.418 276.728 536.154 278.758 536.154ZM281.054 532.094V532.612C281.054 534.292 280.018 535.048 278.982 535.048C277.61 535.048 276.84 533.914 276.84 532.346C276.84 530.764 277.61 529.644 278.982 529.644C280.018 529.644 281.054 530.386 281.054 532.094ZM287.294 536.154C288.75 536.154 289.856 535.356 290.304 534.054L289.198 533.662C288.974 534.53 288.274 535.062 287.294 535.062C286.02 535.062 285.138 534.082 285.068 532.542H290.36V532.122C290.36 530.092 289.282 528.538 287.238 528.538C285.25 528.538 283.864 530.162 283.864 532.346C283.864 534.6 285.264 536.154 287.294 536.154ZM287.224 529.616C288.498 529.616 289.058 530.54 289.086 531.576H285.138C285.362 530.33 286.16 529.616 287.224 529.616ZM290.718 536H292.09L294.106 533.116L296.136 536H297.564L294.876 532.178L297.326 528.678H295.94L294.148 531.24L292.384 528.678H290.942L293.392 532.178L290.718 536Z" fill="#232323"/>
<path d="M167.567 531.492H144.309" stroke="#FA6116" stroke-width="2"/>
<path d="M365.207 533.088L364.157 533.928C364.843 535.286 366.509 536.154 368.245 536.154C370.233 536.154 371.899 534.964 371.899 533.088C371.899 530.96 370.065 530.61 368.399 530.218C366.985 529.882 366.047 529.658 366.047 528.594C366.047 527.628 366.929 526.956 368.147 526.956C369.449 526.956 370.247 527.614 370.765 528.58L371.787 527.768C371.185 526.634 369.925 525.794 368.175 525.794C366.271 525.794 364.745 526.942 364.745 528.706C364.745 530.596 366.313 531.03 367.895 531.408C369.421 531.772 370.583 531.982 370.583 533.2C370.583 534.348 369.575 534.992 368.273 534.992C366.971 534.992 365.837 534.292 365.207 533.088ZM381.485 530.946L380.239 530.736C380.155 531.688 379.903 532.542 379.483 533.242L376.991 530.764C378.559 530.022 379.385 529.364 379.385 528.132C379.385 526.83 378.405 525.808 376.767 525.808C375.101 525.808 373.995 526.942 373.995 528.314C373.995 529.21 374.457 529.91 375.073 530.582C373.785 531.254 372.973 532.052 372.973 533.396C372.973 535.076 374.443 536.154 376.305 536.154C377.579 536.154 378.671 535.706 379.511 534.978L380.547 536H382.255L380.323 534.082C380.967 533.2 381.373 532.108 381.485 530.946ZM375.297 528.258C375.297 527.348 375.955 526.788 376.795 526.788C377.663 526.788 378.167 527.46 378.167 528.146C378.167 529.042 377.621 529.448 376.249 530.036C375.689 529.448 375.297 528.944 375.297 528.258ZM374.331 533.27C374.331 532.346 374.933 531.8 375.815 531.324L378.699 534.18C378.097 534.726 377.327 535.034 376.403 535.034C375.269 535.034 374.331 534.334 374.331 533.27ZM383.364 525.948V536H384.708V531.786H387.2C389.328 531.786 390.686 530.75 390.686 528.86C390.686 526.942 389.328 525.948 387.2 525.948H383.364ZM387.13 530.624H384.708V527.11H387.13C388.558 527.11 389.356 527.726 389.356 528.86C389.356 529.994 388.558 530.624 387.13 530.624ZM400.878 525.948H395.404L394.97 531.114L396.202 531.324C396.538 530.848 397.182 530.47 398.022 530.47C399.296 530.47 400.164 531.492 400.164 532.766C400.164 534.054 399.184 535.034 397.91 535.034C396.664 535.034 395.796 534.208 395.586 532.92L394.298 533.186C394.648 535.09 396.02 536.154 397.91 536.154C399.926 536.154 401.424 534.642 401.424 532.738C401.424 530.834 400.136 529.378 398.176 529.378C397.294 529.378 396.608 529.728 396.174 530.162L396.44 527.124H400.878V525.948ZM402.395 530.974C402.395 534.04 403.837 536.154 406.231 536.154C408.611 536.154 410.053 534.04 410.053 530.974C410.053 527.908 408.611 525.794 406.231 525.794C403.837 525.794 402.395 527.908 402.395 530.974ZM403.739 530.974C403.739 528.622 404.593 526.97 406.231 526.97C407.855 526.97 408.723 528.622 408.723 530.974C408.723 533.326 407.855 534.978 406.231 534.978C404.593 534.978 403.739 533.326 403.739 530.974ZM411.118 530.974C411.118 534.04 412.56 536.154 414.954 536.154C417.334 536.154 418.776 534.04 418.776 530.974C418.776 527.908 417.334 525.794 414.954 525.794C412.56 525.794 411.118 527.908 411.118 530.974ZM412.462 530.974C412.462 528.622 413.316 526.97 414.954 526.97C416.578 526.97 417.446 528.622 417.446 530.974C417.446 533.326 416.578 534.978 414.954 534.978C413.316 534.978 412.462 533.326 412.462 530.974ZM425.902 536H427.246V527.124H430.648V525.948H422.5V527.124H425.902V536ZM431.994 525.948V536H433.338V531.786H435.284L437.986 536H439.526L436.74 531.716C438.336 531.45 439.316 530.47 439.316 528.86C439.316 526.942 437.958 525.948 435.83 525.948H431.994ZM435.76 530.624H433.338V527.11H435.76C437.188 527.11 437.986 527.726 437.986 528.86C437.986 529.994 437.188 530.624 435.76 530.624Z" fill="#232323"/>
<path d="M352.472 531.492H329.214" stroke="#232323" stroke-width="2" stroke-dasharray="2 2"/>
<path d="M72.9306 478.43L69.9626 480.894V482H76.8786V480.824H71.7966L74.0646 478.976C75.5066 477.814 76.6826 476.638 76.6826 474.93C76.6826 473.082 75.3946 471.794 73.3646 471.794C71.5166 471.794 70.0466 473.152 70.0466 474.944C70.0466 475.336 70.1166 475.672 70.2706 476.106H71.5306C71.3906 475.756 71.3066 475.378 71.3066 475.014C71.3066 473.866 72.1326 472.942 73.3366 472.942C74.5686 472.942 75.3666 473.782 75.3666 475.014C75.3666 476.33 74.3026 477.296 72.9306 478.43ZM77.7568 476.974C77.7568 480.04 79.1988 482.154 81.5928 482.154C83.9728 482.154 85.4148 480.04 85.4148 476.974C85.4148 473.908 83.9728 471.794 81.5928 471.794C79.1988 471.794 77.7568 473.908 77.7568 476.974ZM79.1008 476.974C79.1008 474.622 79.9548 472.97 81.5928 472.97C83.2168 472.97 84.0848 474.622 84.0848 476.974C84.0848 479.326 83.2168 480.978 81.5928 480.978C79.9548 480.978 79.1008 479.326 79.1008 476.974ZM86.4795 476.974C86.4795 480.04 87.9215 482.154 90.3155 482.154C92.6955 482.154 94.1375 480.04 94.1375 476.974C94.1375 473.908 92.6955 471.794 90.3155 471.794C87.9215 471.794 86.4795 473.908 86.4795 476.974ZM87.8235 476.974C87.8235 474.622 88.6775 472.97 90.3155 472.97C91.9395 472.97 92.8075 474.622 92.8075 476.974C92.8075 479.326 91.9395 480.978 90.3155 480.978C88.6775 480.978 87.8235 479.326 87.8235 476.974ZM97.3731 482H98.7171V471.892H97.7091C97.6111 473.054 97.2191 473.46 96.0291 473.544L94.9511 473.614V474.608H97.3731V482Z" fill="#989898"/>
<path d="M145.818 473.726V475.448H147.414V473.824H146.686V473.67C146.686 473.054 147.022 472.732 147.638 472.676V471.948C146.518 471.976 145.818 472.662 145.818 473.726ZM148.511 476.974C148.511 480.04 149.953 482.154 152.347 482.154C154.727 482.154 156.169 480.04 156.169 476.974C156.169 473.908 154.727 471.794 152.347 471.794C149.953 471.794 148.511 473.908 148.511 476.974ZM149.855 476.974C149.855 474.622 150.709 472.97 152.347 472.97C153.971 472.97 154.839 474.622 154.839 476.974C154.839 479.326 153.971 480.978 152.347 480.978C150.709 480.978 149.855 479.326 149.855 476.974ZM156.912 479.382H161.77V482H163.016V479.382H164.976V478.262H163.03V471.948H161.322L156.912 478.332V479.382ZM158.284 478.262L161.756 473.236V478.262H158.284Z" fill="#989898"/>
<path d="M215.999 473.726V475.448H217.595V473.824H216.867V473.67C216.867 473.054 217.203 472.732 217.819 472.676V471.948C216.699 471.976 215.999 472.662 215.999 473.726ZM218.692 476.974C218.692 480.04 220.134 482.154 222.528 482.154C224.908 482.154 226.35 480.04 226.35 476.974C226.35 473.908 224.908 471.794 222.528 471.794C220.134 471.794 218.692 473.908 218.692 476.974ZM220.036 476.974C220.036 474.622 220.89 472.97 222.528 472.97C224.152 472.97 225.02 474.622 225.02 476.974C225.02 479.326 224.152 480.978 222.528 480.978C220.89 480.978 220.036 479.326 220.036 476.974ZM227.023 474.832H228.199V473.11H232.777C230.747 475.364 229.669 478.094 229.669 482H231.027C231.027 478.374 231.741 475.84 234.205 473.11V471.948H227.023V474.832Z" fill="#989898"/>
<path d="M288.018 473.726V475.448H289.614V473.824H288.886V473.67C288.886 473.054 289.222 472.732 289.838 472.676V471.948C288.718 471.976 288.018 472.662 288.018 473.726ZM293.101 482H294.445V471.892H293.437C293.339 473.054 292.947 473.46 291.757 473.544L290.679 473.614V474.608H293.101V482ZM296.153 476.974C296.153 480.04 297.595 482.154 299.989 482.154C302.369 482.154 303.811 480.04 303.811 476.974C303.811 473.908 302.369 471.794 299.989 471.794C297.595 471.794 296.153 473.908 296.153 476.974ZM297.497 476.974C297.497 474.622 298.351 472.97 299.989 472.97C301.613 472.97 302.481 474.622 302.481 476.974C302.481 479.326 301.613 480.978 299.989 480.978C298.351 480.978 297.497 479.326 297.497 476.974Z" fill="#989898"/>
<path d="M360.741 473.726V475.448H362.337V473.824H361.609V473.67C361.609 473.054 361.945 472.732 362.561 472.676V471.948C361.441 471.976 360.741 472.662 360.741 473.726ZM365.824 482H367.168V471.892H366.16C366.062 473.054 365.67 473.46 364.48 473.544L363.402 473.614V474.608H365.824V482ZM372.336 482.154C374.422 482.154 375.78 480.838 375.78 479.186C375.78 477.8 374.912 477.03 373.904 476.75C374.758 476.47 375.458 475.63 375.458 474.538C375.458 472.942 374.324 471.794 372.364 471.794C370.432 471.794 369.13 473.068 368.864 474.748L370.068 474.986C370.292 473.726 371.132 472.928 372.336 472.928C373.484 472.928 374.198 473.572 374.198 474.608C374.198 475.616 373.414 476.204 372.252 476.204H371.16V477.338H372.238C373.512 477.338 374.478 477.926 374.478 479.116C374.478 480.306 373.596 481.034 372.322 481.034C371.062 481.034 370.068 480.222 369.872 478.822L368.57 479.102C368.892 481.104 370.418 482.154 372.336 482.154Z" fill="#989898"/>
<path d="M432.39 473.726V475.448H433.986V473.824H433.258V473.67C433.258 473.054 433.594 472.732 434.21 472.676V471.948C433.09 471.976 432.39 472.662 432.39 473.726ZM437.473 482H438.817V471.892H437.809C437.711 473.054 437.319 473.46 436.129 473.544L435.051 473.614V474.608H437.473V482ZM446.615 474.58L447.721 474.118C447.287 472.732 446.279 471.794 444.543 471.794C442.219 471.794 440.525 473.88 440.525 477.072C440.525 479.858 441.687 482.154 444.263 482.154C446.237 482.154 447.749 480.656 447.749 478.696C447.749 476.806 446.335 475.35 444.473 475.35C443.199 475.35 442.219 476.05 441.757 476.932V476.792C441.757 474.44 442.947 472.914 444.501 472.914C445.663 472.914 446.335 473.614 446.615 474.58ZM446.517 478.766C446.517 480.068 445.537 481.048 444.263 481.048C442.989 481.048 442.009 480.068 442.009 478.766C442.009 477.464 443.017 476.456 444.277 476.456C445.551 476.456 446.517 477.464 446.517 478.766Z" fill="#989898"/>
<path d="M503.718 473.726V475.448H505.314V473.824H504.586V473.67C504.586 473.054 504.922 472.732 505.538 472.676V471.948C504.418 471.976 503.718 472.662 503.718 473.726ZM508.801 482H510.145V471.892H509.137C509.039 473.054 508.647 473.46 507.457 473.544L506.379 473.614V474.608H508.801V482ZM512.945 479.368L511.839 479.83C512.273 481.216 513.281 482.154 515.017 482.154C517.341 482.154 519.035 480.068 519.035 476.876C519.035 474.09 517.873 471.794 515.297 471.794C513.323 471.794 511.811 473.292 511.811 475.252C511.811 477.142 513.225 478.598 515.087 478.598C516.361 478.598 517.341 477.898 517.803 477.016V477.156C517.803 479.508 516.613 481.034 515.059 481.034C513.897 481.034 513.225 480.334 512.945 479.368ZM513.043 475.182C513.043 473.88 514.023 472.9 515.297 472.9C516.571 472.9 517.551 473.88 517.551 475.182C517.551 476.484 516.543 477.492 515.283 477.492C514.009 477.492 513.043 476.484 513.043 475.182Z" fill="#989898"/>
<path d="M525.679 473.726V475.448H527.275V473.824H526.547V473.67C526.547 473.054 526.883 472.732 527.499 472.676V471.948C526.379 471.976 525.679 472.662 525.679 473.726ZM531.367 478.43L528.399 480.894V482H535.315V480.824H530.233L532.501 478.976C533.943 477.814 535.119 476.638 535.119 474.93C535.119 473.082 533.831 471.794 531.801 471.794C529.953 471.794 528.483 473.152 528.483 474.944C528.483 475.336 528.553 475.672 528.707 476.106H529.967C529.827 475.756 529.743 475.378 529.743 475.014C529.743 473.866 530.569 472.942 531.773 472.942C533.005 472.942 533.803 473.782 533.803 475.014C533.803 476.33 532.739 477.296 531.367 478.43ZM536.193 476.974C536.193 480.04 537.635 482.154 540.029 482.154C542.409 482.154 543.851 480.04 543.851 476.974C543.851 473.908 542.409 471.794 540.029 471.794C537.635 471.794 536.193 473.908 536.193 476.974ZM537.537 476.974C537.537 474.622 538.391 472.97 540.029 472.97C541.653 472.97 542.521 474.622 542.521 476.974C542.521 479.326 541.653 480.978 540.029 480.978C538.391 480.978 537.537 479.326 537.537 476.974Z" fill="#989898"/>
<path opacity="0.1" d="M69.4243 385.859H551.015" stroke="#232323"/>
<path opacity="0.1" d="M69.4243 350.898H551.015" stroke="#232323"/>
<path opacity="0.1" d="M69.4243 315.937H551.015" stroke="#232323"/>
<path opacity="0.1" d="M69.4243 279.77H551.015" stroke="#232323"/>
<path opacity="0.1" d="M69.4243 244.809H551.015" stroke="#232323"/>
<path opacity="0.1" d="M69.4243 209.848H551.015" stroke="#232323"/>
<path opacity="0.1" d="M69.4243 173.681H551.015" stroke="#232323"/>
<path opacity="0.1" d="M69.4243 138.719H551.015" stroke="#232323"/>
<path opacity="0.1" d="M69.4243 103.758H551.015" stroke="#232323"/>
<path opacity="0.1" d="M69.4243 422.026H551.015" stroke="#232323"/>
<path opacity="0.1" d="M69.4243 455.658H551.015" stroke="#232323"/>
<path d="M42.3061 455.58C42.3061 458.646 43.7481 460.76 46.1421 460.76C48.5221 460.76 49.9641 458.646 49.9641 455.58C49.9641 452.514 48.5221 450.4 46.1421 450.4C43.7481 450.4 42.3061 452.514 42.3061 455.58ZM43.6501 455.58C43.6501 453.228 44.5041 451.576 46.1421 451.576C47.7661 451.576 48.6341 453.228 48.6341 455.58C48.6341 457.932 47.7661 459.584 46.1421 459.584C44.5041 459.584 43.6501 457.932 43.6501 455.58ZM50.6367 460.606H52.0087L54.0247 457.722L56.0548 460.606H57.4828L54.7948 456.784L57.2448 453.284H55.8588L54.0668 455.846L52.3027 453.284H50.8607L53.3107 456.784L50.6367 460.606Z" fill="#989898"/>
<path d="M45.7773 388.146L42.8093 390.61V391.716H49.7253V390.54H44.6433L46.9113 388.692C48.3533 387.53 49.5293 386.354 49.5293 384.646C49.5293 382.798 48.2413 381.51 46.2113 381.51C44.3633 381.51 42.8933 382.868 42.8933 384.66C42.8933 385.052 42.9633 385.388 43.1173 385.822H44.3773C44.2373 385.472 44.1533 385.094 44.1533 384.73C44.1533 383.582 44.9793 382.658 46.1833 382.658C47.4153 382.658 48.2133 383.498 48.2133 384.73C48.2133 386.046 47.1493 387.012 45.7773 388.146ZM50.2936 391.716H51.6656L53.6816 388.832L55.7116 391.716H57.1396L54.4516 387.894L56.9016 384.394H55.5156L53.7236 386.956L51.9596 384.394H50.5176L52.9676 387.894L50.2936 391.716Z" fill="#989898"/>
<path d="M41.9421 318.419H46.8001V321.037H48.0461V318.419H50.0061V317.299H48.0601V310.985H46.3521L41.9421 317.369V318.419ZM43.3141 317.299L46.7861 312.273V317.299H43.3141ZM50.294 321.037H51.666L53.682 318.153L55.712 321.037H57.14L54.452 317.215L56.902 313.715H55.516L53.724 316.277L51.96 313.715H50.518L52.968 317.215L50.294 321.037Z" fill="#989898"/>
<path d="M48.5318 242.043L49.6378 241.581C49.2038 240.195 48.1958 239.257 46.4598 239.257C44.1358 239.257 42.4418 241.343 42.4418 244.535C42.4418 247.321 43.6038 249.617 46.1798 249.617C48.1538 249.617 49.6658 248.119 49.6658 246.159C49.6658 244.269 48.2518 242.813 46.3898 242.813C45.1158 242.813 44.1358 243.513 43.6738 244.395V244.255C43.6738 241.903 44.8638 240.377 46.4178 240.377C47.5798 240.377 48.2518 241.077 48.5318 242.043ZM48.4338 246.229C48.4338 247.531 47.4538 248.511 46.1798 248.511C44.9058 248.511 43.9258 247.531 43.9258 246.229C43.9258 244.927 44.9338 243.919 46.1938 243.919C47.4678 243.919 48.4338 244.927 48.4338 246.229ZM50.294 249.463H51.666L53.682 246.579L55.712 249.463H57.14L54.452 245.641L56.902 242.141H55.516L53.724 244.703L51.96 242.141H50.518L52.968 245.641L50.294 249.463Z" fill="#989898"/>
<path d="M45.9728 168.579C44.1528 168.579 42.7808 169.657 42.7808 171.267C42.7808 172.275 43.3548 173.059 44.3488 173.451C43.1588 173.815 42.2628 174.739 42.2628 176.013C42.2628 177.777 43.8308 178.925 45.9728 178.925C48.1288 178.925 49.6968 177.777 49.6968 176.013C49.6968 174.739 48.8008 173.815 47.5968 173.451C48.6048 173.059 49.1788 172.275 49.1788 171.267C49.1788 169.657 47.8068 168.579 45.9728 168.579ZM45.9728 172.919C44.7968 172.919 43.9848 172.275 43.9848 171.281C43.9848 170.301 44.7968 169.643 45.9728 169.643C47.1628 169.643 47.9608 170.301 47.9608 171.281C47.9608 172.275 47.1628 172.919 45.9728 172.919ZM45.9728 174.025C47.3868 174.025 48.3948 174.809 48.3948 175.929C48.3948 177.077 47.3868 177.861 45.9728 177.861C44.5588 177.861 43.5788 177.077 43.5788 175.929C43.5788 174.809 44.5588 174.025 45.9728 174.025ZM50.294 178.785H51.666L53.682 175.901L55.712 178.785H57.14L54.452 174.963L56.902 171.463H55.516L53.724 174.025L51.96 171.463H50.518L52.968 174.963L50.294 178.785Z" fill="#989898"/>
<path d="M38.9115 109H40.2555V98.892H39.2475C39.1495 100.054 38.7575 100.46 37.5675 100.544L36.4895 100.614V101.608H38.9115V109ZM41.9631 103.974C41.9631 107.04 43.4051 109.154 45.7991 109.154C48.1791 109.154 49.6211 107.04 49.6211 103.974C49.6211 100.908 48.1791 98.794 45.7991 98.794C43.4051 98.794 41.9631 100.908 41.9631 103.974ZM43.3071 103.974C43.3071 101.622 44.1611 99.97 45.7991 99.97C47.4231 99.97 48.2911 101.622 48.2911 103.974C48.2911 106.326 47.4231 107.978 45.7991 107.978C44.1611 107.978 43.3071 106.326 43.3071 103.974ZM50.2938 109H51.6658L53.6818 106.116L55.7118 109H57.1398L54.4518 105.178L56.9018 101.678H55.5158L53.7238 104.24L51.9598 101.678H50.5178L52.9678 105.178L50.2938 109Z" fill="#989898"/>
<path d="M84 417.206L88.8717 418.988L95.3673 418.097L101.051 420.771L118.914 421.217L124.598 423L131.093 422.554H136.777L142.46 420.326L148.956 418.988L154.64 414.977L172.097 410.965L178.186 403.834L184.276 403.388L196.455 395.81L201.733 390.462L207.822 386.45L213.506 381.101L219.596 378.873L225.685 366.838L231.775 362.381L237.865 352.575L243.954 349.009L249.232 344.551L254.51 344.997L261.411 347.226L267.501 358.369L273.185 376.198L279.274 380.21L284.146 375.753L297.137 363.272L303.227 360.598H308.504L314.594 353.466L320.684 344.106L327.585 337.865L332.457 332.962L338.547 340.54L344.23 336.974L349.914 329.397L356.004 330.288L368.183 319.59L379.956 311.567L386.046 303.99L391.729 292.401L397.819 287.052L403.503 279.029L409.998 279.92L415.276 276.355L421.772 273.234L427.455 263.874L433.545 265.657L439.228 260.754L445.318 257.634L451.408 252.731L457.091 244.262L463.181 238.467L468.865 229.553L486.728 191.22L493.223 183.643L498.095 173.391L504.591 163.139L510.68 166.259L522.453 139.069L528.137 135.058L534.227 116.783L540.316 146.201L546 115" stroke="#FA6116" stroke-width="2" stroke-miterlimit="10" stroke-linecap="round" stroke-linejoin="round"/>
<path d="M83 419.013L88.686 421.703L94.7781 422.368L100.87 426.576L106.962 425.027L113.054 425.69L118.74 429.676L130.112 431L154.481 423.453L166.665 423.897L173.163 423.009L178.037 421.677L183.723 422.121L190.221 419.901L195.907 420.345L201.593 418.57L207.685 417.682L213.777 418.57L219.463 415.462L231.241 411.91L237.333 412.354L243.019 409.691L249.518 414.574L255.204 413.686L260.889 416.794L266.982 425.673L272.668 429.224L278.76 427.892L284.852 423.897L296.63 421.677L302.722 417.682L308.814 420.345L315.312 417.682L320.186 414.574L326.684 411.91L332.37 413.686L338.056 414.574L344.554 412.798L350.24 409.691L355.926 410.135L362.018 408.803L373.796 402.143L385.575 396.816L391.667 395.484L397.353 391.933L403.851 390.157L409.537 387.049L415.629 387.493L421.315 383.942L427.001 383.054L433.093 383.498L439.185 387.937L450.963 379.058L457.055 380.39L463.147 374.175L470.052 369.735L474.925 367.072L480.611 363.076L486.704 353.753L492.389 359.525L498.482 353.309L504.574 356.417L510.26 355.973L516.352 347.094L522.444 344.874L528.536 342.655L533.816 335.108L540.314 346.206L546 332" stroke="#232323" stroke-width="2" stroke-miterlimit="10" stroke-linecap="round" stroke-linejoin="round" stroke-dasharray="2 4"/>
</svg>
